# xmcd
#
# Track frame offsets:
#       150
#       13650
#       33525
#       44925
#       61875
#       76500
#       92700
#       109575
#       125250
#       139500
#       152925
#       164175
#       183375
#       200175
#       216075
#       240375
#       258300
#       273150
#       290250
#
# Disc length: 4096 seconds
#
# Revision: 1
# Processed by: cddbd v1.5.2PL0 Copyright (c) Steve Scherf et al.
# Submitted via: FreeDbEdit v0.1
#
DISCID=100ffe13
DTITLE=The Judds - Greatest Hits, Volume 2
DYEAR=1900
DGENRE=
TTITLE0=Let Me Tell You About Love
TTITLE1=Young Love (Strong Love)
TTITLE2=Don't Be Cruel
TTITLE3=Turn It Loose
TTITLE4=Had a Dream (For the Heart)
TTITLE5=Why Not Me
TTITLE6=Guardian Angel
TTITLE7=Drops of Water
TTITLE8=Sleeping Heart
TTITLE9=Girls Night Out
TTITLE10=Sleepless Nights
TTITLE11=Water of Love
TTITLE12=Guardiar Angle
TTITLE13=Maybe Your Baby's Got the Blues
TTITLE14=Love Can Build a Bridge
TTITLE15=Love Is Alive
TTITLE16=Mama He's Cry
TTITLE17=I'm Faliing in Love Tonight
TTITLE18=Old Pictures
EXTD=
EXTT0=
EXTT1=
EXTT2=
EXTT3=
EXTT4=
EXTT5=
EXTT6=
EXTT7=
EXTT8=
EXTT9=
EXTT10=
EXTT11=
EXTT12=
EXTT13=
EXTT14=
EXTT15=
EXTT16=
EXTT17=
EXTT18=
PLAYORDER=
